<svg width="24" height="24" viewBox="0 0 24 24" fill="none" xmlns="http://www.w3.org/2000/svg">
<path d="M18.75 11.35C18.4848 11.3476 18.2203 11.3209 17.96 11.27C17.7097 11.2174 17.4652 11.1404 17.23 11.04L17.06 11H16.94C16.84 11 16.79 11.07 16.79 11.21V11.54C16.7758 11.6025 16.7758 11.6674 16.79 11.73C16.8402 11.8122 16.9132 11.8782 17 11.92C17.2405 12.0403 17.4962 12.1278 17.76 12.18C18.0876 12.2583 18.4232 12.2986 18.76 12.3C19.0988 12.3102 19.437 12.2628 19.76 12.16C20.0269 12.09 20.2757 11.9638 20.49 11.79C20.6925 11.6335 20.8595 11.4358 20.98 11.21C21.0947 10.9661 21.1528 10.6995 21.15 10.43C21.1536 10.0956 21.0483 9.7692 20.85 9.49999C20.5833 9.19702 20.2368 8.97523 19.85 8.85999L18.9 8.55999C18.6346 8.4913 18.3861 8.36876 18.17 8.19999C18.1067 8.13921 18.0563 8.06624 18.0219 7.98546C17.9875 7.90468 17.9699 7.81778 17.97 7.72999C17.9628 7.61133 17.9879 7.49295 18.0424 7.38734C18.097 7.28173 18.1791 7.19281 18.28 7.12999C18.5567 6.99576 18.8629 6.93383 19.17 6.94999C19.6076 6.93937 20.0418 7.02827 20.44 7.20999C20.5214 7.25149 20.6094 7.27856 20.7 7.28999C20.8 7.28999 20.85 7.20999 20.85 7.06999V6.70999C20.853 6.63224 20.8321 6.55545 20.79 6.48999C20.7366 6.42192 20.6681 6.36716 20.59 6.32999C20.5008 6.28089 20.407 6.2407 20.31 6.20999C20.1855 6.16606 20.0587 6.12934 19.93 6.09999L19.49 5.99999C19.3269 5.98821 19.1631 5.98821 19 5.99999C18.7194 5.99515 18.4396 6.03223 18.17 6.10999C17.9175 6.18368 17.6804 6.30224 17.47 6.45999C17.2748 6.60244 17.1142 6.787 17 6.99999C16.8773 7.22706 16.8153 7.48195 16.82 7.73999C16.814 8.10101 16.9303 8.45344 17.15 8.73999C17.4246 9.07075 17.7949 9.3083 18.21 9.41999L19.21 9.71999C19.4574 9.7778 19.6873 9.89443 19.88 10.06C19.9997 10.1867 20.0644 10.3557 20.06 10.53C20.0622 10.6565 20.0309 10.7813 19.9695 10.8919C19.9081 11.0025 19.8185 11.095 19.71 11.16C19.4132 11.3093 19.0813 11.375 18.75 11.35ZM12.94 6.49999C12.9246 6.40197 12.8792 6.31114 12.81 6.23999C12.7352 6.18483 12.6424 6.15984 12.55 6.16999H12C11.9081 6.16489 11.8169 6.18942 11.74 6.23999C11.6671 6.30842 11.621 6.40061 11.61 6.49999L10.61 10.9L9.47 6.49999C9.45181 6.40077 9.40283 6.30979 9.33 6.23999C9.33 6.23999 9.2 6.16999 9.07 6.16999H8.42C8.31 6.16999 8.26 6.22999 8.26 6.33999C8.2697 6.43197 8.28983 6.52256 8.32 6.60999L9.88 11.75C9.90027 11.8414 9.94134 11.927 10 12C10.0786 12.0458 10.1693 12.0667 10.26 12.06H10.83C10.9239 12.0663 11.0176 12.0455 11.1 12C11.163 11.9221 11.2044 11.829 11.22 11.73L12.22 7.44999L13.22 11.74C13.2283 11.838 13.2708 11.9301 13.34 12C13.4187 12.055 13.5145 12.0798 13.61 12.07H14.18C14.2687 12.0744 14.3564 12.0498 14.43 12C14.5052 11.932 14.5547 11.8402 14.57 11.74L16.18 6.59999C16.1859 6.54682 16.1859 6.49316 16.18 6.43999C16.1839 6.40343 16.1839 6.36655 16.18 6.32999C16.1834 6.30689 16.1813 6.28332 16.1739 6.26116C16.1666 6.23901 16.1541 6.21887 16.1376 6.20237C16.1211 6.18586 16.101 6.17343 16.0788 6.16608C16.0567 6.15872 16.0331 6.15663 16.01 6.15999H15.39C15.2982 6.15624 15.2075 6.18067 15.13 6.22999C15.0684 6.30627 15.0241 6.39497 15 6.48999L14 11L12.94 6.49999ZM5.77 8.62999C5.53455 8.5991 5.29745 8.5824 5.06 8.57999C4.47147 8.54907 3.89189 8.73396 3.43 9.09999C3.2333 9.26845 3.07719 9.47914 2.97329 9.71636C2.8694 9.95358 2.82042 10.2112 2.83 10.47C2.81837 10.7057 2.85593 10.9412 2.94029 11.1616C3.02465 11.3819 3.15396 11.5823 3.32 11.75C3.49845 11.9147 3.70806 12.042 3.93648 12.1244C4.16489 12.2069 4.4075 12.2428 4.65 12.23C5.03169 12.241 5.41077 12.1636 5.75768 12.0041C6.10458 11.8445 6.40996 11.607 6.65 11.31C6.70845 11.444 6.77525 11.5743 6.85 11.7C6.92119 11.8099 7.00147 11.9136 7.09 12.01C7.11418 12.0345 7.14299 12.0539 7.17475 12.0672C7.2065 12.0805 7.24058 12.0873 7.275 12.0873C7.30942 12.0873 7.34349 12.0805 7.37525 12.0672C7.40701 12.0539 7.43581 12.0345 7.46 12.01L7.88 11.73C7.91506 11.7083 7.94489 11.6791 7.96736 11.6445C7.98983 11.61 8.00439 11.5708 8.01 11.53C8.02616 11.4779 8.02616 11.4221 8.01 11.37C7.92896 11.2185 7.85879 11.0614 7.8 10.9C7.74642 10.7047 7.72282 10.5024 7.73 10.3V8.18999C7.75389 7.89365 7.71747 7.59554 7.62294 7.31367C7.52841 7.03179 7.37773 6.77201 7.18 6.54999C6.92586 6.3363 6.63047 6.1772 6.3122 6.08258C5.99393 5.98796 5.6596 5.95985 5.33 5.99999C4.99244 5.99986 4.6563 6.04356 4.33 6.12999C4.03945 6.19754 3.7576 6.29819 3.49 6.42999C3.41942 6.46117 3.3576 6.50925 3.31 6.56999C3.28556 6.64471 3.28556 6.72527 3.31 6.79999V7.12999C3.31 7.26999 3.31 7.32999 3.45 7.32999C3.48625 7.33784 3.52375 7.33784 3.56 7.32999L3.79 7.24999C3.99313 7.15029 4.20377 7.0667 4.42 6.99999C4.65547 6.94097 4.89724 6.91075 5.14 6.90999C5.52657 6.86949 5.91376 6.98063 6.22 7.21999C6.45814 7.5191 6.56944 7.8997 6.53 8.27999V8.76999L5.77 8.62999ZM6.55 9.52999V9.79999C6.55078 9.99548 6.52726 10.1903 6.48 10.38C6.43779 10.5393 6.35904 10.6865 6.25 10.81C6.08326 11.006 5.86505 11.1515 5.62 11.23C5.40141 11.3069 5.1717 11.3474 4.94 11.35C4.81315 11.3594 4.68571 11.343 4.56539 11.3018C4.44507 11.2605 4.33437 11.1953 4.24 11.11C4.15241 11.0151 4.08577 10.9029 4.04442 10.7805C4.00307 10.6582 3.98794 10.5286 4 10.4C3.99173 10.2563 4.01729 10.1127 4.0746 9.98074C4.13191 9.84874 4.21939 9.73204 4.33 9.63999C4.62144 9.43569 4.97533 9.34014 5.33 9.36999H5.95C6.15277 9.41232 6.35307 9.46574 6.55 9.52999ZM19.76 15C17.3694 16.0058 14.8036 16.5292 12.21 16.54C8.73854 16.5406 5.32669 15.6377 2.31 13.92C2.07 13.77 1.88 14.02 2.09 14.21C4.8053 16.6646 8.33968 18.0163 12 18C14.8865 18.0071 17.7086 17.1466 20.1 15.53C20.44 15.22 20.13 14.81 19.76 15Z" fill="#535353"/>
<path d="M18.38 14.06C18.19 14.2 18.22 14.39 18.43 14.36C19.14 14.27 20.71 14.09 20.99 14.45C21.27 14.81 20.68 16.28 20.41 16.94C20.33 17.14 20.51 17.22 20.69 17.07C21.1453 16.6508 21.4944 16.1293 21.7082 15.5485C21.9221 14.9677 21.9947 14.3444 21.92 13.73C21.3454 13.5037 20.7256 13.4157 20.1107 13.473C19.4957 13.5303 18.9029 13.7314 18.38 14.06Z" fill="#535353"/>
</svg>
