<svg width="31" height="20" viewBox="0 0 31 20" fill="none" xmlns="http://www.w3.org/2000/svg">
<path d="M15.3208 19.9531C15.2191 19.9531 15.1173 19.9227 15.0253 19.8719L14.0953 19.293C13.9548 19.2117 14.0227 19.1812 14.0711 19.166C14.2552 19.1 14.2939 19.0848 14.4925 18.9629C14.5119 18.9527 14.5409 18.9578 14.5603 18.968L15.2772 19.4148C15.3014 19.4301 15.3402 19.4301 15.3644 19.4148L18.1641 17.7187C18.1883 17.7035 18.2077 17.673 18.2077 17.6375V14.2504C18.2077 14.2148 18.1931 14.1844 18.1641 14.1691L15.3644 12.4781C15.3402 12.4629 15.3062 12.4629 15.2772 12.4781L12.4775 14.1691C12.4484 14.1844 12.4339 14.2199 12.4339 14.2504V17.6375C12.4339 17.668 12.4533 17.6984 12.4775 17.7137L13.2428 18.1758C13.6594 18.3941 13.9161 18.1352 13.9161 17.8812V14.5348C13.9161 14.4891 13.95 14.4484 13.9984 14.4484H14.352C14.3956 14.4484 14.4344 14.484 14.4344 14.5348V17.8812C14.4344 18.4652 14.1341 18.7953 13.6061 18.7953C13.4462 18.7953 13.3155 18.7953 12.9619 18.6125L12.2256 18.1707C12.0464 18.059 11.9302 17.8559 11.9302 17.6375V14.2504C11.9302 14.032 12.0416 13.8238 12.2256 13.7172L15.0253 12.0211C15.2045 11.9144 15.437 11.9144 15.6114 12.0211L18.4111 13.7172C18.5903 13.8289 18.7066 14.032 18.7066 14.2504V17.6375C18.7066 17.8559 18.5952 18.0641 18.4111 18.1707L15.6114 19.8668C15.5291 19.9227 15.4273 19.9531 15.3208 19.9531ZM17.5828 16.6117C17.5828 15.9769 17.1759 15.8094 16.3137 15.6875C15.4419 15.5656 15.3547 15.5047 15.3547 15.2914C15.3547 15.1137 15.4273 14.8801 16.0716 14.8801C16.648 14.8801 16.8611 15.0121 16.9483 15.4184C16.958 15.459 16.987 15.4844 17.0258 15.4844H17.3891C17.4133 15.4844 17.4327 15.4742 17.4472 15.459C17.4617 15.4387 17.4714 15.4184 17.4666 15.393C17.4084 14.6922 16.9677 14.3672 16.0716 14.3672C15.2723 14.3672 14.7977 14.7227 14.7977 15.3117C14.7977 15.9566 15.2723 16.1293 16.0377 16.2105C16.9531 16.307 17.0258 16.4441 17.0258 16.632C17.0258 16.9621 16.7739 17.0992 16.183 17.0992C15.4419 17.0992 15.2772 16.9062 15.2239 16.5203C15.2191 16.4797 15.1852 16.4492 15.1416 16.4492H14.7783C14.7347 16.4492 14.6959 16.4848 14.6959 16.5355C14.6959 17.0281 14.9527 17.6172 16.1781 17.6172C17.0742 17.6172 17.5828 17.2516 17.5828 16.6117ZM20.2227 14.0676C20.2227 14.3773 19.9805 14.6312 19.685 14.6312C19.3895 14.6312 19.1473 14.3773 19.1473 14.0676C19.1473 13.7477 19.3992 13.5039 19.685 13.5039C19.9756 13.4988 20.2227 13.7477 20.2227 14.0676ZM20.1355 14.0676C20.1355 13.8035 19.932 13.5953 19.6802 13.5953C19.4331 13.5953 19.2297 13.8035 19.2297 14.0676C19.2297 14.3316 19.4331 14.5449 19.6802 14.5449C19.932 14.5398 20.1355 14.3266 20.1355 14.0676ZM19.9175 14.3824H19.7916C19.7867 14.3519 19.7673 14.1894 19.7673 14.1844C19.7577 14.1488 19.748 14.1285 19.7044 14.1285H19.5978V14.3824H19.4816V13.7477H19.6898C19.7625 13.7477 19.903 13.7477 19.903 13.9152C19.903 14.032 19.8303 14.0574 19.7867 14.0727C19.8691 14.0777 19.8739 14.1336 19.8884 14.2148C19.8933 14.2656 19.903 14.3519 19.9175 14.3824ZM19.7819 13.9355C19.7819 13.8492 19.7237 13.8492 19.6947 13.8492H19.5978V14.0269H19.6898C19.7673 14.0269 19.7819 13.9711 19.7819 13.9355ZM6.65047 6.69921C6.65047 6.5621 6.58266 6.44023 6.47125 6.37421L3.50203 4.58164C3.45359 4.55117 3.39547 4.53593 3.33734 4.53085H3.30828C3.25016 4.53085 3.19688 4.55117 3.14359 4.58164L0.179219 6.37421C0.0678125 6.44023 0 6.56718 0 6.69921L0.00484375 11.5234C0.00484375 11.5894 0.03875 11.6504 0.0920312 11.6859C0.145312 11.7215 0.213125 11.7215 0.27125 11.6859L2.03437 10.6246C2.14578 10.5535 2.21359 10.4316 2.21359 10.2996V8.04492C2.21359 7.91289 2.28141 7.78593 2.39281 7.71992L3.14359 7.26796C3.20172 7.23242 3.25984 7.21718 3.32281 7.21718C3.38578 7.21718 3.44875 7.23242 3.50203 7.26796L4.25281 7.71992C4.36422 7.78593 4.43203 7.91289 4.43203 8.04492V10.2996C4.43203 10.4316 4.49984 10.5586 4.61125 10.6246L6.37437 11.6859C6.42766 11.7215 6.50031 11.7215 6.55359 11.6859C6.60687 11.6555 6.64078 11.5894 6.64078 11.5234L6.65047 6.69921ZM22.8867 1.4332V10.391C22.8867 10.523 22.8189 10.65 22.7075 10.716L19.7383 12.5137C19.6269 12.5797 19.4912 12.5797 19.3798 12.5137L16.4106 10.716C16.2992 10.65 16.2314 10.523 16.2314 10.391V6.7957C16.2314 6.66367 16.2992 6.53671 16.4106 6.4707L19.3798 4.67304C19.4912 4.60703 19.6269 4.60703 19.7383 4.67304L20.4794 5.11992C20.5617 5.1707 20.6683 5.10468 20.6683 5.0082V0.234761C20.6683 0.0925731 20.8136 0.00116679 20.9347 0.0722605L22.7027 1.1082C22.8141 1.16914 22.8867 1.29609 22.8867 1.4332ZM20.6586 7.9789C20.6586 7.94335 20.6392 7.91289 20.615 7.89765L19.5978 7.27812C19.5688 7.26289 19.5348 7.26289 19.5058 7.27812L18.4886 7.89765C18.4595 7.91289 18.445 7.94335 18.445 7.9789V9.21288C18.445 9.24843 18.4644 9.2789 18.4886 9.29414L19.5058 9.90859C19.5348 9.92382 19.5687 9.92382 19.593 9.90859L20.6102 9.29414C20.6392 9.2789 20.6537 9.24843 20.6537 9.21288V7.9789H20.6586ZM30.8208 7.94335C30.9322 7.87734 31 7.75039 31 7.61835V6.74999C31 6.61796 30.9322 6.49101 30.8208 6.42499L27.8709 4.62734C27.7595 4.56132 27.6239 4.56132 27.5125 4.62734L24.5433 6.42499C24.4319 6.49101 24.3641 6.61796 24.3641 6.74999V10.3453C24.3641 10.4824 24.4319 10.6043 24.5433 10.6703L27.4931 12.4324C27.5997 12.4984 27.7353 12.4984 27.8467 12.4324L29.6292 11.3914C29.7503 11.3203 29.7503 11.1375 29.6292 11.0664L26.6406 9.26875C26.5825 9.2332 26.5486 9.17226 26.5486 9.10624V7.9789C26.5486 7.91289 26.5825 7.85195 26.6406 7.8164L27.5706 7.25273C27.6239 7.21718 27.6966 7.21718 27.7498 7.25273L28.6798 7.8164C28.7331 7.85195 28.7719 7.91289 28.7719 7.9789V8.8625C28.7719 9.00468 28.922 9.09609 29.0431 9.02499L30.8208 7.94335ZM27.0766 8.12109C27.0572 8.13632 27.0427 8.15664 27.0427 8.18203V8.87265C27.0427 8.89804 27.0572 8.92343 27.0766 8.93359L27.6481 9.2789C27.6675 9.29414 27.6966 9.29414 27.7159 9.2789L28.2875 8.93359C28.3069 8.91835 28.3214 8.89804 28.3214 8.87265V8.18203C28.3214 8.15664 28.3069 8.13124 28.2875 8.12109L27.7159 7.77578C27.6966 7.76054 27.6675 7.76054 27.6481 7.77578L27.0766 8.12109ZM14.7637 10.3301V6.75507C14.7637 6.62304 14.6862 6.49609 14.5748 6.43007L11.6153 4.64257C11.5136 4.58164 11.3731 4.57148 11.2569 4.64257L8.29734 6.43007C8.18594 6.49609 8.10844 6.61796 8.10844 6.75507V10.3301C8.10844 10.4723 8.20047 10.5941 8.30219 10.6551L11.2666 12.4426C11.3828 12.5137 11.5184 12.5086 11.625 12.4426L14.5797 10.6551C14.6669 10.6043 14.7298 10.518 14.7541 10.4164C14.7589 10.391 14.7637 10.3605 14.7637 10.3301ZM11.1648 3.98749L11.1261 4.01289H11.1794L11.1648 3.98749ZM14.8558 10.5992L14.8364 10.5637V10.6094L14.8558 10.5992Z" fill="#535353"/>
</svg>
