<svg width="20" height="26" viewBox="0 0 20 26" fill="none" xmlns="http://www.w3.org/2000/svg">
<path d="M6.74995 6.375C6.74995 6.01033 6.89482 5.66059 7.15268 5.40273C7.41054 5.14487 7.76028 5 8.12495 5C8.48962 5 8.83936 5.14487 9.09722 5.40273C9.35509 5.66059 9.49995 6.01033 9.49995 6.375V12.5213L11.1637 12.7L17.9562 15.7113C18.6849 16.0413 19.125 16.77 19.125 17.5675V23.5625C19.0837 24.69 18.19 25.5837 17.0625 25.625H8.12495C7.60245 25.625 7.10745 25.4187 6.74995 25.0337L0.0124512 19.2588L1.02995 18.2C1.2912 17.9113 1.66245 17.76 2.04745 17.76H2.34995L6.74995 20.125V6.375ZM8.12495 0.875C9.58364 0.875 10.9826 1.45446 12.014 2.48591C13.0455 3.51736 13.625 4.91631 13.625 6.375C13.625 8.4375 12.525 10.1838 10.875 11.1325V9.455C11.7137 8.69875 12.25 7.59875 12.25 6.375C12.25 5.28098 11.8154 4.23177 11.0418 3.45818C10.2682 2.6846 9.21897 2.25 8.12495 2.25C7.03093 2.25 5.98172 2.6846 5.20814 3.45818C4.43455 4.23177 3.99995 5.28098 3.99995 6.375C3.99995 7.59875 4.5362 8.69875 5.37495 9.455V11.1325C3.72495 10.1838 2.62495 8.4375 2.62495 6.375C2.62495 4.91631 3.20441 3.51736 4.23586 2.48591C5.26731 1.45446 6.66626 0.875 8.12495 0.875Z" fill="#2F89FC"/>
</svg>
