<svg width="22" height="20" viewBox="0 0 22 20" fill="none" xmlns="http://www.w3.org/2000/svg">
<path d="M5.306 6.711C2.704 7.434 1 8.637 1 10C1 12.21 5.477 14 11 14C11.773 14 12.526 13.965 13.248 13.898M16.692 13.289C19.295 12.567 21 11.363 21 10C21 7.79 16.523 6 11 6C10.227 6 9.474 6.035 8.75 6.102" stroke="#535353" stroke-width="2" stroke-linecap="round" stroke-linejoin="round"/>
<path d="M5.30499 13.287C4.62899 15.902 4.81999 17.98 5.99999 18.66C7.91299 19.765 11.703 16.783 14.464 12C14.851 11.33 15.197 10.661 15.5 10.002M16.694 6.71602C17.371 4.10002 17.181 2.02002 16 1.34002C14.087 0.235018 10.297 3.21702 7.53599 8.00002C7.14899 8.67002 6.80299 9.34002 6.49899 9.99902" stroke="#535353" stroke-width="2" stroke-linecap="round" stroke-linejoin="round"/>
<path d="M11 3.42401C9.07499 1.53201 7.17998 0.658006 5.99998 1.34001C4.08698 2.44401 4.77399 7.21701 7.53599 12C7.92199 12.67 8.32899 13.304 8.74799 13.896M10.998 16.574C12.924 18.467 14.819 19.342 16 18.66C17.913 17.556 17.226 12.783 14.464 8.00001C14.089 7.35001 13.684 6.71701 13.252 6.10301M10.5 10.866C10.6138 10.9327 10.7396 10.9762 10.8703 10.9941C11.0009 11.012 11.1338 11.0038 11.2613 10.9701C11.3888 10.9364 11.5084 10.8778 11.6132 10.7977C11.7179 10.7176 11.8058 10.6175 11.8717 10.5033C11.9377 10.3891 11.9804 10.263 11.9974 10.1322C12.0144 10.0014 12.0053 9.86859 11.9708 9.74131C11.9362 9.61404 11.8769 9.49486 11.7961 9.39063C11.7153 9.2864 11.6146 9.19919 11.5 9.13401C11.2704 9.00349 10.9986 8.96907 10.7437 9.03826C10.4889 9.10744 10.2717 9.27462 10.1397 9.50331C10.0077 9.732 9.97145 10.0036 10.0389 10.2589C10.1064 10.5142 10.2722 10.7325 10.5 10.866Z" stroke="#535353" stroke-width="2" stroke-linecap="round" stroke-linejoin="round"/>
</svg>
