<svg width="26" height="23" viewBox="0 0 26 23" fill="none" xmlns="http://www.w3.org/2000/svg">
<path d="M12.2683 0.935335C12.62 0.142717 13.7448 0.142715 14.0965 0.935333L16.8352 7.10846C16.9846 7.44518 17.307 7.67251 17.6743 7.70012L24.6616 8.22526C25.5663 8.29326 25.9202 9.43406 25.2128 10.0022L19.9869 14.1988C19.6814 14.4442 19.5473 14.8454 19.644 15.2251L21.257 21.5645C21.4747 22.4204 20.5573 23.1177 19.7909 22.6789L13.6793 19.1793C13.3715 19.003 12.9933 19.003 12.6855 19.1793L6.57386 22.6789C5.8075 23.1177 4.89006 22.4204 5.10782 21.5645L6.72083 15.2251C6.81745 14.8454 6.68338 14.4442 6.37785 14.1988L1.152 10.0022C0.444591 9.43406 0.798472 8.29326 1.7032 8.22526L8.69043 7.70012C9.05777 7.67251 9.38018 7.44518 9.52956 7.10846L12.2683 0.935335Z" fill="#FFC107"/>
</svg>
